<?xml version="1.0" encoding="utf-8"?>
<!-- Generator: Adobe Illustrator 16.0.0, SVG Export Plug-In . SVG Version: 6.00 Build 0)  -->
<!DOCTYPE svg PUBLIC "-//W3C//DTD SVG 1.1//EN" "http://www.w3.org/Graphics/SVG/1.1/DTD/svg11.dtd">
<svg version="1.1" xmlns="http://www.w3.org/2000/svg" xmlns:xlink="http://www.w3.org/1999/xlink" x="0px" y="0px" width="40px"
	 height="40px" viewBox="0 0 40 40" enable-background="new 0 0 40 40" xml:space="preserve">
<g id="Layer_1">
	<g>
		<polygon fill="#FFFFFF" points="40,38.225 40,36.241 39.009,37.233 38.301,36.525 39.999,34.828 40,34.829 40,31.241 
			36.508,34.732 35.802,34.026 39.999,29.828 40,29.829 40,26.241 34.009,32.233 33.302,31.526 39.999,24.828 40,24.829 40,21.241 
			31.509,29.733 30.802,29.026 39.999,19.828 40,19.829 40,16.241 29.009,27.233 28.302,26.526 39.999,14.828 40,14.829 40,11.241 
			26.51,24.734 25.802,24.026 39.999,9.828 40,9.829 40,5.706 23.741,21.966 23.034,21.259 39.999,4.293 40,4.294 40,0.706 
			21.24,19.466 		"/>
		<polygon fill="#FFFFFF" points="3.759,0 1.773,0 2.766,0.993 		"/>
		<polygon fill="#FFFFFF" points="8.012,6.238 7.766,5.992 13.759,0 10.173,0 5.973,4.199 5.266,3.492 8.759,0 5.173,0 3.473,1.7 		
			"/>
		<polygon fill="#FFFFFF" points="12.766,10.992 23.759,0 20.173,0 10.973,9.199 10.267,8.492 18.759,0 15.173,0 8.473,6.7 		"/>
		<polygon fill="#FFFFFF" points="20.558,18.783 20.533,18.759 39.292,0 35.706,0 18.74,16.965 18.033,16.259 34.292,0 30.173,0 
			15.974,14.199 15.266,13.491 28.759,0 25.173,0 13.472,11.698 		"/>
		<polygon fill="#2585A6" points="39.292,0 20.533,18.759 20.558,18.783 21.24,19.466 40,0.706 40,0 		"/>
		<polygon fill="#2585A6" points="23.034,21.259 23.741,21.966 40,5.706 40,4.294 39.999,4.293 		"/>
		<polygon fill="#2585A6" points="25.802,24.026 26.51,24.734 40,11.241 40,9.829 39.999,9.828 		"/>
		<polygon fill="#2585A6" points="28.302,26.526 29.009,27.233 40,16.241 40,14.829 39.999,14.828 		"/>
		<polygon fill="#2585A6" points="30.802,29.026 31.509,29.733 40,21.241 40,19.91 40,19.829 39.999,19.828 		"/>
		<polygon fill="#2585A6" points="33.302,31.526 34.009,32.233 40,26.241 40,24.829 39.999,24.828 		"/>
		<polygon fill="#2585A6" points="35.802,34.026 36.508,34.732 40,31.241 40,29.829 39.999,29.828 		"/>
		<polygon fill="#2585A6" points="38.301,36.525 39.009,37.233 40,36.241 40,34.829 39.999,34.828 		"/>
		<polygon fill="#2585A6" points="18.74,16.965 35.706,0 34.292,0 18.033,16.259 		"/>
		<polygon fill="#2585A6" points="15.974,14.199 30.173,0 28.759,0 15.266,13.491 		"/>
		<polygon fill="#2585A6" points="13.472,11.698 25.173,0 23.759,0 12.766,10.992 		"/>
		<polygon fill="#2585A6" points="10.973,9.199 20.173,0 18.759,0 10.267,8.492 		"/>
		<polygon fill="#2585A6" points="8.012,6.238 8.473,6.7 15.173,0 13.759,0 7.766,5.992 		"/>
		<polygon fill="#2585A6" points="5.973,4.199 10.173,0 8.759,0 5.266,3.492 		"/>
		<polygon fill="#2585A6" points="3.473,1.7 5.173,0 3.759,0 2.766,0.993 		"/>
		<polygon points="20.558,18.783 13.472,11.698 12.766,10.992 8.473,6.7 8.012,6.238 3.473,1.7 2.766,0.993 1.773,0 1.334,0 
			0.359,0 40,39.639 40,38.666 40,38.225 21.24,19.466 		"/>
	</g>
</g>
<g id="Layer_2" display="none">
	<polygon display="inline" points="1.773,0 0.359,0 40,39.639 40,38.225 	"/>
</g>
</svg>
